<svg width="57" height="20" viewBox="0 0 57 20" fill="none" xmlns="http://www.w3.org/2000/svg">
<path d="M3.03995 14.6C3.78662 14.6 4.39995 14.48 4.87995 14.24C5.37328 13.9867 5.61995 13.5667 5.61995 12.98C5.61995 12.7 5.57328 12.46 5.47995 12.26C5.39995 12.06 5.25995 11.88 5.05995 11.72C4.85995 11.56 4.59329 11.4067 4.25995 11.26C3.93995 11.1134 3.53995 10.94 3.05995 10.74C2.67328 10.58 2.30662 10.42 1.95995 10.26C1.61328 10.0867 1.30662 9.89335 1.03995 9.68002C0.773285 9.45335 0.559951 9.18669 0.399951 8.88002C0.239951 8.57335 0.159951 8.20002 0.159951 7.76002C0.159951 6.92002 0.473285 6.24002 1.09995 5.72002C1.73995 5.20002 2.61328 4.94002 3.71995 4.94002C4.42662 4.94002 5.00662 5.00002 5.45995 5.12002C5.92662 5.24002 6.25328 5.34669 6.43995 5.44002L6.13995 6.60002C5.97995 6.52002 5.70662 6.41335 5.31995 6.28002C4.94662 6.14669 4.39328 6.08002 3.65995 6.08002C3.36662 6.08002 3.08662 6.11335 2.81995 6.18002C2.56662 6.23335 2.33995 6.32669 2.13995 6.46002C1.93995 6.58002 1.77995 6.74002 1.65995 6.94002C1.53995 7.12669 1.47995 7.36002 1.47995 7.64002C1.47995 7.92002 1.53328 8.16002 1.63995 8.36002C1.74662 8.56002 1.89995 8.74002 2.09995 8.90002C2.31328 9.04669 2.56662 9.18669 2.85995 9.32002C3.16662 9.45335 3.51328 9.60002 3.89995 9.76002C4.29995 9.92002 4.67995 10.0867 5.03995 10.26C5.41328 10.42 5.73995 10.62 6.01995 10.86C6.29995 11.0867 6.52662 11.3667 6.69995 11.7C6.87328 12.02 6.95995 12.4267 6.95995 12.92C6.95995 13.8534 6.60662 14.56 5.89995 15.04C5.20662 15.52 4.25328 15.76 3.03995 15.76C2.13328 15.76 1.43995 15.68 0.959951 15.52C0.479951 15.3734 0.159951 15.26 -4.87715e-05 15.18L0.339951 14C0.379951 14.0267 0.466618 14.0734 0.599951 14.14C0.733285 14.1934 0.913285 14.26 1.13995 14.34C1.36662 14.4067 1.63328 14.4667 1.93995 14.52C2.25995 14.5734 2.62662 14.6 3.03995 14.6ZM10.7746 15.52H9.47464V5.18002H10.7746V15.52ZM11.0746 2.06002C11.0746 2.36669 10.9813 2.61335 10.7946 2.80002C10.608 2.97335 10.3813 3.06002 10.1146 3.06002C9.84797 3.06002 9.62131 2.97335 9.43464 2.80002C9.24797 2.61335 9.15464 2.36669 9.15464 2.06002C9.15464 1.75335 9.24797 1.51335 9.43464 1.34002C9.62131 1.15335 9.84797 1.06002 10.1146 1.06002C10.3813 1.06002 10.608 1.15335 10.7946 1.34002C10.9813 1.51335 11.0746 1.75335 11.0746 2.06002ZM14.2207 5.54002C14.6074 5.43335 15.1074 5.31335 15.7207 5.18002C16.3474 5.04669 17.1541 4.98002 18.1407 4.98002C19.4474 4.98002 20.3941 5.36002 20.9807 6.12002C21.0474 6.06669 21.1741 5.98002 21.3607 5.86002C21.5607 5.72669 21.8074 5.59335 22.1007 5.46002C22.3941 5.32669 22.7341 5.21335 23.1207 5.12002C23.5207 5.02669 23.9607 4.98002 24.4407 4.98002C25.2274 4.98002 25.8607 5.10002 26.3407 5.34002C26.8341 5.56669 27.2141 5.89335 27.4807 6.32002C27.7474 6.73335 27.9274 7.23335 28.0207 7.82002C28.1141 8.40669 28.1607 9.04669 28.1607 9.74002V15.52H26.8607V10.16C26.8607 9.48002 26.8274 8.89335 26.7607 8.40002C26.7074 7.89335 26.5874 7.48002 26.4007 7.16002C26.2274 6.82669 25.9741 6.58002 25.6407 6.42002C25.3074 6.24669 24.8741 6.16002 24.3407 6.16002C23.9407 6.16002 23.5741 6.20002 23.2407 6.28002C22.9207 6.34669 22.6407 6.43335 22.4007 6.54002C22.1607 6.64669 21.9607 6.75335 21.8007 6.86002C21.6541 6.96669 21.5474 7.04669 21.4807 7.10002C21.6007 7.44669 21.6874 7.84002 21.7407 8.28002C21.8074 8.70669 21.8407 9.16002 21.8407 9.64002V15.52H20.5407V10.16C20.5407 9.48002 20.5074 8.89335 20.4407 8.40002C20.3874 7.89335 20.2674 7.48002 20.0807 7.16002C19.8941 6.82669 19.6274 6.58002 19.2807 6.42002C18.9474 6.24669 18.5007 6.16002 17.9407 6.16002C17.3141 6.16002 16.7807 6.19335 16.3407 6.26002C15.9141 6.32669 15.6407 6.38669 15.5207 6.44002V15.52H14.2207V5.54002ZM32.7864 13.66C32.9064 13.7534 33.053 13.8534 33.2264 13.96C33.413 14.0667 33.6264 14.1667 33.8664 14.26C34.1064 14.3534 34.3664 14.4334 34.6464 14.5C34.9264 14.5534 35.2197 14.58 35.5264 14.58C36.1664 14.58 36.6997 14.4734 37.1264 14.26C37.5664 14.0334 37.9197 13.7334 38.1864 13.36C38.453 12.9734 38.6464 12.5267 38.7664 12.02C38.8864 11.5 38.9464 10.9534 38.9464 10.38C38.9464 9.02002 38.6064 7.98002 37.9264 7.26002C37.2464 6.52669 36.3464 6.16002 35.2264 6.16002C34.5864 6.16002 34.0664 6.19335 33.6664 6.26002C33.2797 6.31335 32.9864 6.37335 32.7864 6.44002V13.66ZM32.7864 19.22H31.4864V5.54002C31.873 5.40669 32.3664 5.28002 32.9664 5.16002C33.5664 5.04002 34.3264 4.98002 35.2464 4.98002C36.0064 4.98002 36.693 5.10669 37.3064 5.36002C37.933 5.60002 38.4664 5.95335 38.9064 6.42002C39.3597 6.88669 39.7064 7.45335 39.9464 8.12002C40.1997 8.78669 40.3264 9.54002 40.3264 10.38C40.3264 11.1667 40.2197 11.8934 40.0064 12.56C39.8064 13.2134 39.5064 13.78 39.1064 14.26C38.7064 14.7267 38.213 15.0934 37.6264 15.36C37.053 15.6267 36.393 15.76 35.6464 15.76C34.9664 15.76 34.373 15.6667 33.8664 15.48C33.373 15.28 33.013 15.0934 32.7864 14.92V19.22ZM45.7665 15.7C45.3265 15.6867 44.9398 15.6267 44.6065 15.52C44.2865 15.4267 44.0132 15.28 43.7865 15.08C43.5732 14.8667 43.4065 14.6 43.2865 14.28C43.1798 13.9467 43.1265 13.5334 43.1265 13.04V0.240018L44.4265 1.90735e-05V13C44.4265 13.32 44.4532 13.58 44.5065 13.78C44.5732 13.9667 44.6665 14.12 44.7865 14.24C44.9065 14.3467 45.0598 14.4267 45.2465 14.48C45.4465 14.5334 45.6798 14.58 45.9465 14.62L45.7665 15.7ZM47.6242 10.34C47.6242 9.43335 47.7508 8.64669 48.0042 7.98002C48.2708 7.30002 48.6108 6.73335 49.0242 6.28002C49.4508 5.82669 49.9308 5.49335 50.4642 5.28002C51.0108 5.05335 51.5708 4.94002 52.1442 4.94002C53.4108 4.94002 54.4175 5.35335 55.1642 6.18002C55.9242 7.00669 56.3042 8.28002 56.3042 10C56.3042 10.1067 56.2975 10.2134 56.2842 10.32C56.2842 10.4267 56.2775 10.5267 56.2642 10.62H49.0042C49.0442 11.8867 49.3575 12.86 49.9442 13.54C50.5308 14.22 51.4642 14.56 52.7442 14.56C53.4508 14.56 54.0108 14.4934 54.4242 14.36C54.8375 14.2267 55.1375 14.1134 55.3242 14.02L55.5642 15.14C55.3775 15.2467 55.0242 15.3734 54.5042 15.52C53.9975 15.6667 53.3975 15.74 52.7042 15.74C51.7975 15.74 51.0242 15.6067 50.3842 15.34C49.7442 15.0734 49.2175 14.7 48.8042 14.22C48.3908 13.74 48.0908 13.1734 47.9042 12.52C47.7175 11.8534 47.6242 11.1267 47.6242 10.34ZM54.9642 9.52002C54.9375 8.44002 54.6842 7.60002 54.2042 7.00002C53.7242 6.40002 53.0442 6.10002 52.1642 6.10002C51.6975 6.10002 51.2775 6.19335 50.9042 6.38002C50.5442 6.56669 50.2242 6.82002 49.9442 7.14002C49.6775 7.44669 49.4642 7.80669 49.3042 8.22002C49.1575 8.63335 49.0708 9.06669 49.0442 9.52002H54.9642Z" fill="#333333"/>
</svg>
